<svg width="1134" height="334" viewBox="0 0 1134 334" fill="none" xmlns="http://www.w3.org/2000/svg">
<path d="M146.317 86.5449C136.31 89.8835 126.385 94.9664 117.088 101.808C79.2023 129.687 66.0992 176.217 87.8215 205.736C109.544 235.255 157.865 236.585 195.751 208.706C227.391 185.423 241.747 149.131 232.967 120.603C253.81 146.693 259.955 183.133 245.836 215.951C225.437 263.366 170.462 285.267 123.047 264.868C75.632 244.469 53.7311 189.494 74.1301 142.079C87.4117 111.208 115.35 91.1517 146.317 86.5449Z" fill="white"/>
<path d="M705.454 98.5C727.441 98.5001 744.338 102.328 756.143 109.983C767.948 117.492 774.958 128.975 777.171 144.434L739.763 154.812C739.173 148.63 737.476 143.992 734.672 140.9C732.016 137.809 728.4 135.747 723.825 134.717C719.251 133.686 713.2 133.171 705.675 133.171C687.82 133.171 678.892 137.147 678.892 145.097C678.892 147.894 679.704 150.102 681.327 151.722C683.098 153.194 685.754 154.372 689.295 155.255C692.837 156.138 698.445 157.169 706.118 158.347L734.008 162.542C748.174 164.75 759.684 169.829 768.538 177.779C777.54 185.582 782.04 195.299 782.04 206.93C782.04 217.824 778.942 227.099 772.744 234.755C766.694 242.263 758.356 247.931 747.732 251.759C737.255 255.586 725.449 257.5 712.316 257.5C690.476 257.5 672.842 253.452 659.413 245.354C646.132 237.257 638.016 225.185 635.065 209.138L675.351 198.979C676.679 207.96 680.368 214.29 686.418 217.971C692.616 221.651 701.323 223.492 712.537 223.492C722.571 223.492 729.95 222.608 734.672 220.842C739.541 218.928 741.977 215.689 741.977 211.125C741.829 208.623 741.017 206.709 739.541 205.384C738.213 204.059 735.852 202.955 732.458 202.071C729.212 201.188 724.194 200.157 717.406 198.979L685.532 193.68C671.661 191.324 660.373 186.024 651.666 177.779C642.96 169.535 638.459 159.008 638.164 146.2C638.017 136.042 640.968 127.43 647.018 120.363C653.068 113.149 661.184 107.702 671.366 104.021C681.696 100.341 693.059 98.5 705.454 98.5Z" fill="white"/>
<path d="M386.061 183.963L397.571 201.408H398.456L398.236 184.404V100.709H438.521V255.292H386.504L327.846 169.167L315.45 150.396H314.566L314.786 169.167V255.292H274.501V100.709H328.732L386.061 183.963Z" fill="white"/>
<path d="M582.304 137.588H500.848V158.347H574.999V194.121H500.848V218.413H582.304V255.292H461.005V100.709H582.304V137.588Z" fill="white"/>
<path d="M834.898 255.292H793.284V100.709H834.898V255.292Z" fill="white"/>
<path d="M953.285 186.392L962.582 218.854L971.878 186.392L998.661 100.709H1067.5V255.292H1028.54V166.517L1028.99 137.809H1028.1L1018.8 166.517L987.816 255.292H937.348L906.138 166.517L897.063 137.809H896.177L896.399 166.517V255.292H857.441V100.709H926.28L953.285 186.392Z" fill="white"/>
<path d="M155.734 61.6826C155.755 61.6716 157.184 60.9286 159.361 62.5215C159.402 62.5494 163.923 65.595 164.041 65.5468L165.763 65.4257C168.441 64.7614 169.195 66.8377 167.58 67.5009L172.771 70.998H173.461C175.936 70.2264 176.637 72.2493 175.571 72.8691L175.806 72.7568L184.029 77.8759C184.386 77.7905 184.739 77.7057 185.086 77.622C190.814 76.2428 195.166 75.1949 196.066 77.5322C197.013 79.995 192.91 81.2068 186.232 83.1787L186.228 83.1797L183.902 91.0175C185.569 90.8263 187.151 93.1702 183.884 93.7959L182.946 94.0693L181.705 99.4306C182.649 99.2949 184.233 101.365 182.299 101.932L180.767 102.573L179.363 107.433C179.361 107.445 179.006 109.129 177.542 109.544L174.941 110.211C174.941 110.211 175.875 96.5649 174.987 91.6543C174.344 88.0942 173.054 86.9519 171.911 86.7324C170.77 86.5133 169.729 86.7253 166.865 87.4609C165.201 88.3692 163.708 89.1356 162.4 89.7763C157.436 93.5983 152.669 98.0788 148.26 103.175C123.944 131.281 119.726 167.472 138.839 184.007C157.881 200.48 192.896 191.23 217.201 163.368C212.926 171.45 207.162 179.258 199.986 186.307C171.324 214.458 130.97 219.85 109.851 198.349C88.7323 176.847 94.847 136.596 123.508 108.444C135.162 96.9981 148.749 89.3139 162.19 85.6709L165.87 83.9111C166.506 83.7865 169.698 82.1616 170.297 81.207C171.397 79.3845 170.231 77.439 168.875 76.2519L153.612 62.4433L155.734 61.6826Z" fill="white"/>
</svg>
