<svg width="65" height="65" viewBox="0 0 65 65" fill="none" xmlns="http://www.w3.org/2000/svg">
<path fill-rule="evenodd" clip-rule="evenodd" d="M26.6699 9.76888C28.5432 8.64214 30.702 8 33 8C35.298 8 37.4568 8.64214 39.3301 9.76888L40.7005 8.2929C41.0632 7.90237 41.6511 7.90237 42.0138 8.2929C42.3763 8.68342 42.3763 9.31658 42.0138 9.7071L40.9137 10.8919C44.0065 13.4512 46 17.4749 46 22H20C20 17.4749 21.9935 13.4512 25.0863 10.8919L23.9862 9.7071C23.6237 9.31658 23.6237 8.68342 23.9862 8.2929C24.3489 7.90237 24.9368 7.90237 25.2995 8.2929L26.6699 9.76888ZM29.2857 16C29.2857 17.1046 28.4543 18 27.4286 18C26.4029 18 25.5714 17.1046 25.5714 16C25.5714 14.8954 26.4029 14 27.4286 14C28.4543 14 29.2857 14.8954 29.2857 16ZM38.5714 18C39.5971 18 40.4286 17.1046 40.4286 16C40.4286 14.8954 39.5971 14 38.5714 14C37.5457 14 36.7143 14.8954 36.7143 16C36.7143 17.1046 37.5457 18 38.5714 18Z" fill="#87C527"/>
<path d="M12 26.8333C12 25.2686 13.3431 24 15 24C16.6569 24 18 25.2686 18 26.8333V38.1667C18 39.7314 16.6569 41 15 41C13.3431 41 12 39.7314 12 38.1667V26.8333Z" fill="#87C527"/>
<path d="M25.5714 48.5556V55.1667C25.5714 56.7314 26.8187 58 28.3571 58C29.8956 58 31.1429 56.7314 31.1429 55.1667V48.5556H34.8571V55.1667C34.8571 56.7314 36.1044 58 37.6429 58C39.1813 58 40.4286 56.7314 40.4286 55.1667V48.5556H42.2857C44.3371 48.5556 46 46.8642 46 44.7778V24H20V44.7778C20 46.8642 21.6629 48.5556 23.7143 48.5556H25.5714Z" fill="#87C527"/>
<path d="M48 26.8333C48 25.2686 49.3432 24 51 24C52.6568 24 54 25.2686 54 26.8333V38.1667C54 39.7314 52.6568 41 51 41C49.3432 41 48 39.7314 48 38.1667V26.8333Z" fill="#87C527"/>
</svg>
