<svg width="65" height="65" viewBox="0 0 65 65" fill="none" xmlns="http://www.w3.org/2000/svg">
<path d="M46.9152 32.6216C46.8766 30.64 47.3918 28.6871 48.4032 26.9827C49.4145 25.2784 50.8816 23.89 52.6393 22.9742C51.5324 21.4353 50.0869 20.171 48.4144 19.2789C46.7416 18.3869 44.8867 17.8908 42.9919 17.829C38.9079 17.5074 34.4701 20.2087 32.83 20.2087C31.19 20.2087 27.1381 17.9576 24.0509 17.9576C17.6193 17.9576 10.834 23.0707 10.834 33.2648C10.865 36.4423 11.4191 39.5931 12.474 42.5906C13.889 46.7068 19.195 57.0295 24.7262 56.8687C27.6205 56.8687 29.6786 54.8106 33.441 54.8106C37.2035 54.8106 38.9722 56.8687 42.2201 56.8687C47.7835 56.8687 52.6072 47.3821 53.9899 43.1694C51.8961 42.313 50.105 40.8524 48.845 38.9738C47.5847 37.0951 46.913 34.8836 46.9152 32.6216ZM40.4836 13.7449C41.4828 12.6183 42.2362 11.2957 42.6958 9.86169C43.1553 8.42764 43.3109 6.91358 43.1527 5.41602C40.1501 5.74528 37.3768 7.17779 35.3705 9.43576C34.3331 10.5288 33.532 11.824 33.0175 13.2404C32.503 14.6569 32.2859 16.1641 32.3798 17.6682C33.9369 17.712 35.4818 17.3779 36.8816 16.6947C38.2818 16.0115 39.4954 14.9994 40.4193 13.7449H40.4836Z" fill="black"/>
</svg>
