<svg width="678" height="105" viewBox="0 0 678 105" fill="none" xmlns="http://www.w3.org/2000/svg">
<rect width="678" height="105" rx="52.5" fill="#ECEEF2" fill-opacity="0.8"/>
<g filter="url(#filter0_d_172_3396)">
<rect x="15" y="15" width="315" height="75" rx="37.5" fill="white" shape-rendering="crispEdges"/>
<path d="M52.7972 61V43.72H66.8012V61H63.9092V46.432H55.6892V61H52.7972ZM75.8884 61.36C74.5924 61.36 73.4604 61.068 72.4924 60.484C71.5244 59.9 70.7724 59.096 70.2364 58.072C69.7084 57.04 69.4444 55.856 69.4444 54.52C69.4444 53.16 69.7164 51.968 70.2604 50.944C70.8044 49.92 71.5604 49.12 72.5284 48.544C73.4964 47.968 74.6164 47.68 75.8884 47.68C77.1924 47.68 78.3284 47.972 79.2964 48.556C80.2644 49.14 81.0164 49.948 81.5524 50.98C82.0884 52.004 82.3564 53.184 82.3564 54.52C82.3564 55.864 82.0844 57.052 81.5404 58.084C81.0044 59.108 80.2524 59.912 79.2844 60.496C78.3164 61.072 77.1844 61.36 75.8884 61.36ZM75.8884 58.648C77.0404 58.648 77.8964 58.264 78.4564 57.496C79.0164 56.728 79.2964 55.736 79.2964 54.52C79.2964 53.264 79.0124 52.264 78.4444 51.52C77.8764 50.768 77.0244 50.392 75.8884 50.392C75.1124 50.392 74.4724 50.568 73.9684 50.92C73.4724 51.264 73.1044 51.748 72.8644 52.372C72.6244 52.988 72.5044 53.704 72.5044 54.52C72.5044 55.776 72.7884 56.78 73.3564 57.532C73.9324 58.276 74.7764 58.648 75.8884 58.648ZM84.9763 61V48.04H96.2323V61H93.3403V50.752H87.8683V61H84.9763ZM101.306 66.76L103.802 59.908L103.85 61.924L98.1979 48.04H101.21L105.218 58.312H104.45L108.35 48.04H111.242L104.018 66.76H101.306ZM111.363 61V58.576C111.835 58.664 112.199 58.656 112.455 58.552C112.711 58.44 112.903 58.232 113.031 57.928C113.159 57.624 113.271 57.22 113.367 56.716C113.495 56.004 113.607 55.184 113.703 54.256C113.807 53.328 113.895 52.336 113.967 51.28C114.047 50.224 114.119 49.144 114.183 48.04H123.723V61H120.843V50.752H116.727C116.687 51.272 116.639 51.856 116.583 52.504C116.527 53.144 116.467 53.792 116.403 54.448C116.339 55.104 116.267 55.728 116.187 56.32C116.115 56.904 116.039 57.404 115.959 57.82C115.775 58.756 115.511 59.496 115.167 60.04C114.831 60.584 114.359 60.932 113.751 61.084C113.143 61.244 112.347 61.216 111.363 61ZM134.846 61V56.68H132.53C132.234 56.68 131.862 56.672 131.414 56.656C130.974 56.64 130.562 56.6 130.178 56.536C129.178 56.352 128.35 55.916 127.694 55.228C127.038 54.532 126.71 53.588 126.71 52.396C126.71 51.228 127.022 50.288 127.646 49.576C128.27 48.864 129.082 48.408 130.082 48.208C130.498 48.12 130.926 48.072 131.366 48.064C131.814 48.048 132.186 48.04 132.482 48.04H137.738V61H134.846ZM126.374 61L129.47 56.044H132.482L129.41 61H126.374ZM132.23 54.412H134.846V50.308H132.23C132.078 50.308 131.894 50.316 131.678 50.332C131.462 50.348 131.246 50.384 131.03 50.44C130.798 50.512 130.578 50.636 130.37 50.812C130.162 50.988 129.99 51.208 129.854 51.472C129.718 51.736 129.65 52.036 129.65 52.372C129.65 52.876 129.794 53.296 130.082 53.632C130.378 53.96 130.722 54.18 131.114 54.292C131.306 54.34 131.502 54.372 131.702 54.388C131.91 54.404 132.086 54.412 132.23 54.412ZM147.314 61.36C146.05 61.36 144.99 61.06 144.134 60.46C143.278 59.86 142.634 59.044 142.202 58.012C141.77 56.972 141.554 55.808 141.554 54.52C141.554 53.216 141.77 52.048 142.202 51.016C142.634 49.984 143.266 49.172 144.098 48.58C144.938 47.98 145.974 47.68 147.206 47.68C148.43 47.68 149.49 47.98 150.386 48.58C151.29 49.172 151.99 49.984 152.486 51.016C152.982 52.04 153.23 53.208 153.23 54.52C153.23 55.816 152.986 56.98 152.498 58.012C152.01 59.044 151.322 59.86 150.434 60.46C149.546 61.06 148.506 61.36 147.314 61.36ZM141.062 66.76V48.04H143.618V57.136H143.978V66.76H141.062ZM146.87 58.768C147.622 58.768 148.242 58.58 148.73 58.204C149.218 57.828 149.578 57.32 149.81 56.68C150.05 56.032 150.17 55.312 150.17 54.52C150.17 53.736 150.05 53.024 149.81 52.384C149.57 51.736 149.198 51.224 148.694 50.848C148.19 50.464 147.55 50.272 146.774 50.272C146.038 50.272 145.438 50.452 144.974 50.812C144.51 51.164 144.166 51.66 143.942 52.3C143.726 52.932 143.618 53.672 143.618 54.52C143.618 55.36 143.726 56.1 143.942 56.74C144.166 57.38 144.514 57.88 144.986 58.24C145.466 58.592 146.094 58.768 146.87 58.768ZM155.851 61V48.04H158.743V53.152H164.563V48.04H167.455V61H164.563V55.864H158.743V61H155.851ZM170.793 61L170.781 48.04H173.673V52.36H175.125C175.485 52.36 175.889 52.368 176.337 52.384C176.793 52.4 177.173 52.436 177.477 52.492C178.205 52.652 178.825 52.908 179.337 53.26C179.857 53.612 180.253 54.072 180.525 54.64C180.797 55.208 180.933 55.892 180.933 56.692C180.933 57.836 180.637 58.752 180.045 59.44C179.453 60.12 178.625 60.584 177.561 60.832C177.249 60.904 176.861 60.952 176.397 60.976C175.933 60.992 175.521 61 175.161 61H170.793ZM173.673 58.732H175.413C175.589 58.732 175.785 58.724 176.001 58.708C176.217 58.692 176.421 58.656 176.613 58.6C176.973 58.504 177.293 58.288 177.573 57.952C177.853 57.608 177.993 57.188 177.993 56.692C177.993 56.172 177.853 55.744 177.573 55.408C177.293 55.072 176.949 54.852 176.541 54.748C176.349 54.7 176.153 54.668 175.953 54.652C175.761 54.636 175.581 54.628 175.413 54.628H173.673V58.732ZM182.289 61V48.04H185.181V61H182.289ZM194.439 61.36C193.127 61.36 191.975 61.076 190.983 60.508C189.991 59.94 189.215 59.152 188.655 58.144C188.103 57.136 187.827 55.976 187.827 54.664C187.827 53.248 188.099 52.02 188.643 50.98C189.187 49.932 189.943 49.12 190.911 48.544C191.879 47.968 192.999 47.68 194.271 47.68C195.615 47.68 196.755 47.996 197.691 48.628C198.635 49.252 199.335 50.136 199.791 51.28C200.247 52.424 200.419 53.772 200.307 55.324H197.439V54.268C197.431 52.86 197.183 51.832 196.695 51.184C196.207 50.536 195.439 50.212 194.391 50.212C193.207 50.212 192.327 50.58 191.751 51.316C191.175 52.044 190.887 53.112 190.887 54.52C190.887 55.832 191.175 56.848 191.751 57.568C192.327 58.288 193.167 58.648 194.271 58.648C194.983 58.648 195.595 58.492 196.107 58.18C196.627 57.86 197.027 57.4 197.307 56.8L200.163 57.664C199.667 58.832 198.899 59.74 197.859 60.388C196.827 61.036 195.687 61.36 194.439 61.36ZM189.975 55.324V53.14H198.891V55.324H189.975ZM213.417 61.36C212.081 61.36 210.941 61.064 209.997 60.472C209.053 59.872 208.329 59.056 207.825 58.024C207.329 56.992 207.077 55.824 207.069 54.52C207.077 53.192 207.337 52.016 207.849 50.992C208.369 49.96 209.105 49.152 210.057 48.568C211.009 47.976 212.141 47.68 213.453 47.68C214.925 47.68 216.169 48.052 217.185 48.796C218.209 49.532 218.877 50.54 219.189 51.82L216.309 52.6C216.085 51.904 215.713 51.364 215.193 50.98C214.673 50.588 214.081 50.392 213.417 50.392C212.665 50.392 212.045 50.572 211.557 50.932C211.069 51.284 210.709 51.772 210.477 52.396C210.245 53.02 210.129 53.728 210.129 54.52C210.129 55.752 210.405 56.748 210.957 57.508C211.509 58.268 212.329 58.648 213.417 58.648C214.185 58.648 214.789 58.472 215.229 58.12C215.677 57.768 216.013 57.26 216.237 56.596L219.189 57.256C218.789 58.576 218.089 59.592 217.089 60.304C216.089 61.008 214.865 61.36 213.417 61.36ZM224.776 61V50.608H220.444V48.04H232V50.608H227.668V61H224.776ZM240.502 61.36C239.238 61.36 238.178 61.06 237.322 60.46C236.466 59.86 235.822 59.044 235.39 58.012C234.958 56.972 234.742 55.808 234.742 54.52C234.742 53.216 234.958 52.048 235.39 51.016C235.822 49.984 236.454 49.172 237.286 48.58C238.126 47.98 239.162 47.68 240.394 47.68C241.618 47.68 242.678 47.98 243.574 48.58C244.478 49.172 245.178 49.984 245.674 51.016C246.17 52.04 246.418 53.208 246.418 54.52C246.418 55.816 246.174 56.98 245.686 58.012C245.198 59.044 244.51 59.86 243.622 60.46C242.734 61.06 241.694 61.36 240.502 61.36ZM234.25 66.76V48.04H236.806V57.136H237.166V66.76H234.25ZM240.058 58.768C240.81 58.768 241.43 58.58 241.918 58.204C242.406 57.828 242.766 57.32 242.998 56.68C243.238 56.032 243.358 55.312 243.358 54.52C243.358 53.736 243.238 53.024 242.998 52.384C242.758 51.736 242.386 51.224 241.882 50.848C241.378 50.464 240.738 50.272 239.962 50.272C239.226 50.272 238.626 50.452 238.162 50.812C237.698 51.164 237.354 51.66 237.13 52.3C236.914 52.932 236.806 53.672 236.806 54.52C236.806 55.36 236.914 56.1 237.13 56.74C237.354 57.38 237.702 57.88 238.174 58.24C238.654 58.592 239.282 58.768 240.058 58.768ZM252.687 61.36C251.751 61.36 250.959 61.184 250.311 60.832C249.663 60.472 249.171 59.996 248.835 59.404C248.507 58.812 248.343 58.16 248.343 57.448C248.343 56.824 248.447 56.264 248.655 55.768C248.863 55.264 249.183 54.832 249.615 54.472C250.047 54.104 250.607 53.804 251.295 53.572C251.815 53.404 252.423 53.252 253.119 53.116C253.823 52.98 254.583 52.856 255.399 52.744C256.223 52.624 257.083 52.496 257.979 52.36L256.947 52.948C256.955 52.052 256.755 51.392 256.347 50.968C255.939 50.544 255.251 50.332 254.283 50.332C253.699 50.332 253.135 50.468 252.591 50.74C252.047 51.012 251.667 51.48 251.451 52.144L248.811 51.316C249.131 50.22 249.739 49.34 250.635 48.676C251.539 48.012 252.755 47.68 254.283 47.68C255.435 47.68 256.447 47.868 257.319 48.244C258.199 48.62 258.851 49.236 259.275 50.092C259.507 50.548 259.647 51.016 259.695 51.496C259.743 51.968 259.767 52.484 259.767 53.044V61H257.235V58.192L257.655 58.648C257.071 59.584 256.387 60.272 255.603 60.712C254.827 61.144 253.855 61.36 252.687 61.36ZM253.263 59.056C253.919 59.056 254.479 58.94 254.943 58.708C255.407 58.476 255.775 58.192 256.047 57.856C256.327 57.52 256.515 57.204 256.611 56.908C256.763 56.54 256.847 56.12 256.863 55.648C256.887 55.168 256.899 54.78 256.899 54.484L257.787 54.748C256.915 54.884 256.167 55.004 255.543 55.108C254.919 55.212 254.383 55.312 253.935 55.408C253.487 55.496 253.091 55.596 252.747 55.708C252.411 55.828 252.127 55.968 251.895 56.128C251.663 56.288 251.483 56.472 251.355 56.68C251.235 56.888 251.175 57.132 251.175 57.412C251.175 57.732 251.255 58.016 251.415 58.264C251.575 58.504 251.807 58.696 252.111 58.84C252.423 58.984 252.807 59.056 253.263 59.056ZM262.867 61V48.04H265.759V53.152H271.579V48.04H274.471V61H271.579V55.864H265.759V61H262.867ZM277.809 61L277.797 48.04H280.689V52.36H282.141C282.501 52.36 282.905 52.368 283.353 52.384C283.809 52.4 284.189 52.436 284.493 52.492C285.221 52.652 285.841 52.908 286.353 53.26C286.873 53.612 287.269 54.072 287.541 54.64C287.813 55.208 287.949 55.892 287.949 56.692C287.949 57.836 287.653 58.752 287.061 59.44C286.469 60.12 285.641 60.584 284.577 60.832C284.265 60.904 283.877 60.952 283.413 60.976C282.949 60.992 282.537 61 282.177 61H277.809ZM280.689 58.732H282.429C282.605 58.732 282.801 58.724 283.017 58.708C283.233 58.692 283.437 58.656 283.629 58.6C283.989 58.504 284.309 58.288 284.589 57.952C284.869 57.608 285.009 57.188 285.009 56.692C285.009 56.172 284.869 55.744 284.589 55.408C284.309 55.072 283.965 54.852 283.557 54.748C283.365 54.7 283.169 54.668 282.969 54.652C282.777 54.636 282.597 54.628 282.429 54.628H280.689V58.732ZM289.305 61V48.04H292.197V61H289.305Z" fill="black"/>
</g>
<rect x="348.7" y="15.7" width="313.6" height="73.6" rx="36.8" stroke="black" stroke-opacity="0.26" stroke-width="1.4"/>
<path d="M456.414 61V43.72H463.398C463.566 43.72 463.774 43.728 464.022 43.744C464.27 43.752 464.506 43.776 464.73 43.816C465.69 43.968 466.49 44.296 467.13 44.8C467.778 45.304 468.262 45.94 468.582 46.708C468.902 47.476 469.062 48.324 469.062 49.252C469.062 50.188 468.902 51.04 468.582 51.808C468.262 52.576 467.778 53.212 467.13 53.716C466.49 54.22 465.69 54.548 464.73 54.7C464.506 54.732 464.266 54.756 464.01 54.772C463.762 54.788 463.558 54.796 463.398 54.796H458.922V61H456.414ZM458.922 52.42H463.302C463.462 52.42 463.638 52.412 463.83 52.396C464.03 52.38 464.218 52.352 464.394 52.312C464.906 52.192 465.318 51.972 465.63 51.652C465.942 51.324 466.166 50.948 466.302 50.524C466.438 50.1 466.506 49.676 466.506 49.252C466.506 48.828 466.438 48.408 466.302 47.992C466.166 47.568 465.942 47.196 465.63 46.876C465.318 46.548 464.906 46.324 464.394 46.204C464.218 46.156 464.03 46.124 463.83 46.108C463.638 46.092 463.462 46.084 463.302 46.084H458.922V52.42ZM477.209 61.36C475.921 61.36 474.789 61.08 473.813 60.52C472.845 59.952 472.089 59.164 471.545 58.156C471.009 57.14 470.741 55.964 470.741 54.628C470.741 53.212 471.005 51.984 471.533 50.944C472.069 49.904 472.813 49.1 473.765 48.532C474.717 47.964 475.825 47.68 477.089 47.68C478.409 47.68 479.533 47.988 480.461 48.604C481.389 49.212 482.081 50.08 482.537 51.208C483.001 52.336 483.185 53.676 483.089 55.228H480.581V54.316C480.565 52.812 480.277 51.7 479.717 50.98C479.165 50.26 478.321 49.9 477.185 49.9C475.929 49.9 474.985 50.296 474.353 51.088C473.721 51.88 473.405 53.024 473.405 54.52C473.405 55.944 473.721 57.048 474.353 57.832C474.985 58.608 475.897 58.996 477.089 58.996C477.873 58.996 478.549 58.82 479.117 58.468C479.693 58.108 480.141 57.596 480.461 56.932L482.921 57.712C482.417 58.872 481.653 59.772 480.629 60.412C479.605 61.044 478.465 61.36 477.209 61.36ZM472.589 55.228V53.272H481.841V55.228H472.589ZM485.782 61V48.04H494.902V50.404H488.29V61H485.782ZM508.092 48.04V61H505.68V51.988L499.2 61H497.16V48.04H499.572V56.872L506.064 48.04H508.092ZM517.074 61.36C515.778 61.36 514.654 61.068 513.702 60.484C512.75 59.9 512.014 59.096 511.494 58.072C510.982 57.04 510.726 55.852 510.726 54.508C510.726 53.156 510.99 51.968 511.518 50.944C512.046 49.912 512.786 49.112 513.738 48.544C514.69 47.968 515.802 47.68 517.074 47.68C518.37 47.68 519.494 47.972 520.446 48.556C521.398 49.14 522.134 49.944 522.654 50.968C523.174 51.992 523.434 53.172 523.434 54.508C523.434 55.86 523.17 57.052 522.642 58.084C522.122 59.108 521.386 59.912 520.434 60.496C519.482 61.072 518.362 61.36 517.074 61.36ZM517.074 58.996C518.314 58.996 519.238 58.58 519.846 57.748C520.462 56.908 520.77 55.828 520.77 54.508C520.77 53.156 520.458 52.076 519.834 51.268C519.218 50.452 518.298 50.044 517.074 50.044C516.234 50.044 515.542 50.236 514.998 50.62C514.454 50.996 514.05 51.52 513.786 52.192C513.522 52.856 513.39 53.628 513.39 54.508C513.39 55.868 513.702 56.956 514.326 57.772C514.95 58.588 515.866 58.996 517.074 58.996ZM526.059 61V48.04H528.567V53.332H534.891V48.04H537.399V61H534.891V55.696H528.567V61H526.059ZM540.754 61V48.04H543.274V52.54H544.978C545.346 52.54 545.742 52.548 546.166 52.564C546.59 52.58 546.95 52.62 547.246 52.684C547.942 52.828 548.546 53.068 549.058 53.404C549.57 53.74 549.962 54.188 550.234 54.748C550.514 55.3 550.654 55.98 550.654 56.788C550.654 57.916 550.362 58.816 549.778 59.488C549.194 60.152 548.402 60.6 547.402 60.832C547.082 60.904 546.702 60.952 546.262 60.976C545.83 60.992 545.43 61 545.062 61H540.754ZM543.274 58.984H545.206C545.414 58.984 545.646 58.976 545.902 58.96C546.158 58.944 546.394 58.908 546.61 58.852C546.986 58.74 547.326 58.512 547.63 58.168C547.934 57.824 548.086 57.364 548.086 56.788C548.086 56.196 547.934 55.724 547.63 55.372C547.334 55.02 546.958 54.792 546.502 54.688C546.294 54.632 546.074 54.596 545.842 54.58C545.618 54.564 545.406 54.556 545.206 54.556H543.274V58.984ZM552.082 61V48.04H554.59V61H552.082Z" fill="black"/>
<defs>
<filter id="filter0_d_172_3396" x="3.8" y="3.8" width="337.4" height="97.4" filterUnits="userSpaceOnUse" color-interpolation-filters="sRGB">
<feFlood flood-opacity="0" result="BackgroundImageFix"/>
<feColorMatrix in="SourceAlpha" type="matrix" values="0 0 0 0 0 0 0 0 0 0 0 0 0 0 0 0 0 0 127 0" result="hardAlpha"/>
<feOffset/>
<feGaussianBlur stdDeviation="5.6"/>
<feComposite in2="hardAlpha" operator="out"/>
<feColorMatrix type="matrix" values="0 0 0 0 0 0 0 0 0 0 0 0 0 0 0 0 0 0 0.1 0"/>
<feBlend mode="normal" in2="BackgroundImageFix" result="effect1_dropShadow_172_3396"/>
<feBlend mode="normal" in="SourceGraphic" in2="effect1_dropShadow_172_3396" result="shape"/>
</filter>
</defs>
</svg>
