<svg width="46" height="46" viewBox="0 0 46 46" fill="none" xmlns="http://www.w3.org/2000/svg">
<path d="M23.0008 4.00157C12.5232 4.00157 4.00484 12.5249 4 22.9984C4 33.4767 12.5216 42 23.0008 42C33.4817 42 42 33.4767 42 22.9984V22.9968C42 12.5217 33.4768 4 23.0008 4V4.00157ZM23.0008 6.4958C23.6828 6.4958 24.3775 6.79599 25.1398 7.53623C25.9038 8.27647 26.674 9.44424 27.3277 10.9452C27.7672 11.9511 28.1547 13.1047 28.4776 14.373C26.7433 14.1357 24.9052 14.0131 22.9992 14.0131C21.0933 14.0131 19.2535 14.1372 17.5177 14.373C17.839 13.1047 18.2265 11.9511 18.666 10.9452C19.3212 9.44424 20.0915 8.27651 20.8538 7.53623C21.6178 6.79599 22.3171 6.4958 22.9992 6.4958H23.0008ZM17.7983 7.32878C17.269 8.10205 16.7965 8.98218 16.3744 9.95031C15.7443 11.3931 15.2245 13.0418 14.8323 14.8445C13.0335 15.2358 11.3891 15.7544 9.94795 16.3831C8.9824 16.8043 8.10505 17.2742 7.33322 17.7992C8.96664 12.8612 12.8635 8.96311 17.7983 7.32878ZM28.2021 7.32878C33.1369 8.96331 37.0309 12.861 38.664 17.8007C37.8938 17.2757 37.0165 16.8058 36.0493 16.383C34.6081 15.7544 32.9636 15.2341 31.1649 14.8444C30.7743 13.0432 30.2529 11.3946 29.6229 9.95023C29.1992 8.98049 28.7282 8.10044 28.2021 7.32878ZM23.0024 16.5059C25.1241 16.5059 27.1545 16.6756 29.0195 16.9806C29.3251 18.8493 29.4967 20.883 29.4967 23.0077C29.4967 25.131 29.3266 27.1631 29.0195 29.0304C27.1545 29.3353 25.1242 29.5051 23.0024 29.5051C20.8807 29.5051 18.8487 29.3353 16.9821 29.0304C16.6781 27.1649 16.5064 25.1311 16.5064 23.0077C16.5064 20.8828 16.6766 18.849 16.9821 16.9806C18.8487 16.6756 20.8806 16.5059 23.0024 16.5059ZM14.3659 17.5212C14.1281 19.2579 14.0037 21.0983 14.0037 23.0064C14.0037 24.9128 14.1281 26.7517 14.3644 28.4867C13.1027 28.1661 11.9544 27.7795 10.9511 27.341C9.45152 26.6872 8.28436 25.917 7.54406 25.1532C6.80534 24.391 6.50291 23.6884 6.50134 23.0063V23.0048C6.50291 22.3211 6.80691 21.6217 7.54406 20.8595C8.28436 20.0956 9.45156 19.3239 10.9511 18.6701C11.9544 18.2316 13.1027 17.845 14.366 17.5244L14.3659 17.5212ZM31.6341 17.5212C32.8957 17.8418 34.0456 18.2284 35.049 18.6669C36.5485 19.3208 37.7157 20.0925 38.4544 20.8563C39.1947 21.6201 39.4971 22.3226 39.4987 23.0063C39.4971 23.69 39.1978 24.391 38.4591 25.1532C37.7188 25.917 36.5485 26.6872 35.049 27.341C34.0456 27.7795 32.8973 28.1661 31.6357 28.4867C31.8704 26.7516 31.9964 24.9128 31.9964 23.0064C31.9964 21.0984 31.8688 19.258 31.6341 17.5212ZM38.6669 28.2071C37.035 33.1483 33.1381 37.0479 28.2017 38.6822C28.7294 37.9089 29.2019 37.0288 29.6241 36.0591C30.2541 34.6148 30.7739 32.9676 31.1661 31.1666C32.9649 30.7752 34.6094 30.255 36.0505 29.6263C37.0176 29.2036 37.8965 28.7336 38.6668 28.2087L38.6669 28.2071ZM7.33273 28.2087C8.10456 28.7336 8.98188 29.2036 9.94904 29.6263C11.3903 30.255 13.0363 30.7752 14.8334 31.165C15.224 32.9661 15.7454 34.6148 16.3755 36.0591C16.7992 37.0288 17.2702 37.909 17.7994 38.6822C12.863 37.0477 8.96462 33.1499 7.33273 28.2087ZM17.5209 31.6365C19.2567 31.8738 21.0964 31.998 23.0024 31.998C24.9083 31.998 26.7465 31.8707 28.4808 31.6365C28.1579 32.9048 27.7704 34.0568 27.3309 35.0643C26.6772 36.5652 25.9054 37.733 25.143 38.4732C24.3791 39.2135 23.6844 39.5152 23.004 39.5152C22.322 39.5152 21.6226 39.2135 20.8587 38.4732C20.0947 37.733 19.3245 36.5652 18.6708 35.0643C18.2313 34.0568 17.8438 32.9032 17.5225 31.6365H17.5209Z" fill="url(#paint0_linear_146_3292)"/>
<defs>
<linearGradient id="paint0_linear_146_3292" x1="7.4898" y1="27.2653" x2="42" y2="3.22449" gradientUnits="userSpaceOnUse">
<stop stop-color="#5A5C67"/>
<stop offset="0.649676" stop-color="#E1481A"/>
<stop offset="1" stop-color="#F5450E"/>
</linearGradient>
</defs>
</svg>
