<svg width="46" height="46" viewBox="0 0 46 46" fill="none" xmlns="http://www.w3.org/2000/svg">
<path d="M36.3291 8.00195C36.657 8.17277 37.0564 8.27681 37.3027 8.52539C40.3596 11.5596 42.2795 15.1948 43.0322 19.4248C43.1719 20.21 43.2497 21.0062 43.3555 21.7979V24.2842C43.2957 24.7718 43.2425 25.2612 43.1738 25.748C42.5559 30.1241 40.7334 33.9296 37.666 37.1338C37.3349 37.4793 36.8851 37.7145 36.4902 38H35.8438L35.8418 37.998C35.7829 37.97 35.7254 37.938 35.6641 37.918C34.5196 37.4873 34.2267 36.2383 35.0117 35.3047C35.863 34.2917 36.7685 33.3039 37.4775 32.1963C39.8488 28.4899 40.6046 24.4292 39.8955 20.1045C39.3051 16.5 37.6608 13.4206 35.1055 10.8066C34.2243 9.90511 34.4721 8.57891 35.5898 8.14258C35.7263 8.08965 35.8679 8.04847 36.0068 8.00195H36.3291ZM9.34961 8C10.0086 8.17566 10.5353 8.50212 10.7227 9.20312C10.8842 9.8159 10.7011 10.3391 10.2666 10.7803C9.14265 11.9148 8.17433 13.1916 7.38574 14.5771C3.69641 21.0916 4.74642 29.4755 9.93555 34.8936C10.0655 35.029 10.1962 35.1634 10.3213 35.3037C11.1489 36.2316 10.8251 37.4915 9.64941 37.9238C9.6017 37.9452 9.55498 37.9703 9.51074 37.998H8.86523C8.57125 37.8192 8.22526 37.6897 7.99023 37.4531C5.09896 34.5489 3.21882 31.096 2.41113 27.0898C2.22457 26.1611 2.13406 25.2174 2 24.2822V21.7158C2.02423 21.5875 2.05901 21.4602 2.07031 21.3311C2.47418 16.5307 4.36654 12.3897 7.66895 8.87109C8.05254 8.46208 8.4611 8.11874 9.02637 8H9.34961ZM14.1602 12.8047C14.6833 12.8201 15.1832 13.1469 15.4521 13.7666C15.721 14.3865 15.6079 14.9835 15.1357 15.4727C14.2158 16.4263 13.4472 17.4785 12.9053 18.6904C12.0439 20.6125 11.7774 22.7455 12.1396 24.8184C12.502 26.8913 13.477 28.8107 14.9404 30.332C15.639 31.0587 15.7749 31.8139 15.3291 32.498C14.7532 33.3801 13.5649 33.4801 12.792 32.6982C11.5248 31.415 10.4828 29.9714 9.84961 28.2871C7.76103 22.7378 8.72991 17.7646 12.7568 13.3682C13.138 12.9447 13.4947 12.8015 14.1602 12.8047ZM30.6895 12.9453C30.9895 12.8031 31.3274 12.759 31.6543 12.8193C31.9811 12.8797 32.2803 13.0415 32.5088 13.2812C34.3123 15.0843 35.5588 17.2117 36.1436 19.6885C36.3939 20.7607 36.4865 21.8706 36.5762 22.457C36.5108 26.7377 35.203 29.987 32.5547 32.6924C31.8965 33.3652 30.9249 33.4044 30.2764 32.7988C29.611 32.1773 29.5864 31.1947 30.25 30.5098C31.7788 28.9266 32.8162 27.0856 33.1797 24.9121C33.7765 21.3421 32.813 18.2333 30.3271 15.5801C30.0661 15.2989 29.8841 14.9544 29.8008 14.5811C29.6611 13.8816 30.0546 13.2445 30.6895 12.9453ZM22.8975 17.5234C25.8267 17.6166 28.2351 20.1064 28.1875 23.0996C28.1396 26.1135 25.6416 28.5392 22.6318 28.4961C21.9043 28.489 21.1849 28.34 20.5156 28.0566C19.8464 27.7733 19.2403 27.3611 18.7314 26.8447C18.2226 26.3283 17.8206 25.7175 17.5498 25.0469C17.2791 24.3763 17.1447 23.659 17.1533 22.9365C17.1767 19.944 19.7339 17.424 22.8975 17.5234Z" fill="url(#paint0_linear_146_3295)"/>
<defs>
<linearGradient id="paint0_linear_146_3295" x1="5.79795" y1="26.3673" x2="34.8188" y2="-1.50175" gradientUnits="userSpaceOnUse">
<stop stop-color="#5A5C67"/>
<stop offset="0.649676" stop-color="#E1481A"/>
<stop offset="1" stop-color="#F5450E"/>
</linearGradient>
</defs>
</svg>
