<svg width="46" height="46" viewBox="0 0 46 46" fill="none" xmlns="http://www.w3.org/2000/svg">
<path d="M15.362 36.5097C15.8798 35.9936 16.7192 35.9936 17.237 36.5097C17.7528 37.0275 17.7529 37.8669 17.237 38.3847L14.0075 41.6112C13.4914 42.1291 12.6505 42.1291 12.1344 41.6112C11.6168 41.0952 11.6167 40.2542 12.1344 39.7382L15.362 36.5097Z" fill="url(#paint0_linear_146_3293)"/>
<path fill-rule="evenodd" clip-rule="evenodd" d="M25.6901 11.9823C27.9894 9.68334 31.72 9.68328 34.0192 11.9823C36.3185 14.2816 36.3185 18.0131 34.0192 20.3124C31.72 22.6113 27.9893 22.6113 25.6901 20.3124C23.3908 18.0131 23.3908 14.2816 25.6901 11.9823ZM32.1442 13.8573C30.8806 12.5922 28.8287 12.5922 27.5651 13.8573C26.2998 15.1209 26.2999 17.1728 27.5651 18.4364C28.8287 19.7018 30.8806 19.7018 32.1442 18.4364C33.4094 17.1728 33.4095 15.1209 32.1442 13.8573Z" fill="url(#paint1_linear_146_3293)"/>
<path fill-rule="evenodd" clip-rule="evenodd" d="M18.6696 11.4159C28.9554 1.1284 40.5524 4.54385 40.5524 4.54385C40.9888 4.67115 41.3295 5.01268 41.4567 5.44912C41.4627 5.46965 44.864 17.0553 34.5856 27.3319C34.1057 27.8118 33.609 28.2775 33.1003 28.7294L32.5417 34.8847C32.4657 35.7206 32.0553 36.4933 31.405 37.0253L26.0983 41.3671C25.4815 41.8708 24.6451 42.0084 23.901 41.7274C23.1571 41.4482 22.6178 40.7925 22.487 40.0097L21.735 35.4901C20.7958 35.799 19.8814 36.0353 19.0065 36.1864C18.5789 36.2588 18.1423 36.1187 17.8366 35.8095L9.65202 27.5106C9.34633 27.1996 9.21256 26.7576 9.29558 26.33C9.43199 25.6223 9.63337 24.8982 9.89128 24.163L5.99284 23.5146C5.21002 23.3838 4.55436 22.8444 4.27507 22.1005C3.99407 21.3565 4.13174 20.52 4.63542 19.9032L8.9782 14.5966C9.51012 13.9463 10.282 13.5359 11.1178 13.4599L17.2419 12.9032C17.7084 12.3985 18.1843 11.9012 18.6696 11.4159ZM30.2282 31.0292C28.2855 32.4318 26.2501 33.6142 24.2575 34.5077L24.9831 38.8544L29.7262 34.9726C29.8268 34.8913 29.8886 34.7733 29.901 34.6444L30.2282 31.0292ZM13.5505 22.3739C12.8748 23.6596 12.3581 24.9334 12.0475 26.164C12.1063 26.2235 19.2262 33.4413 19.2262 33.4413C20.0584 33.2578 20.9232 32.9955 21.8063 32.664C21.9969 32.4653 22.2497 32.3231 22.5417 32.2743C22.6343 32.2589 22.7268 32.2529 22.8171 32.2567C22.9594 32.1957 23.1019 32.1326 23.2448 32.0683L13.5505 22.3739ZM39.071 6.92959C36.5648 6.47362 28.1633 5.67208 20.5446 13.289C18.4442 15.3894 16.4844 17.6941 14.9479 20.0214L25.7253 30.7987C28.1812 29.3922 30.611 27.5585 32.7126 25.4569C40.3296 17.8381 39.5269 9.43563 39.071 6.92959ZM11.3581 16.1005C11.2292 16.1129 11.1112 16.1747 11.03 16.2753L7.14909 21.0185L10.9645 21.6542C11.9437 19.6994 13.2539 17.7124 14.7692 15.7899L11.3581 16.1005Z" fill="url(#paint2_linear_146_3293)"/>
<path d="M10.1989 33.9276C10.7167 33.4116 11.5561 33.4116 12.0739 33.9276C12.5898 34.4455 12.5899 35.2849 12.0739 35.8026L7.55437 40.3212C7.03654 40.839 6.19718 40.839 5.67937 40.3212C5.1619 39.8033 5.16169 38.9639 5.67937 38.4462L10.1989 33.9276Z" fill="url(#paint3_linear_146_3293)"/>
<path d="M7.61589 28.7636C8.13371 28.2476 8.97308 28.2476 9.49089 28.7636C10.0069 29.2814 10.0069 30.1207 9.49089 30.6386L6.26237 33.8661C5.74632 34.3839 4.90441 34.3839 4.38835 33.8661C3.87056 33.3501 3.87054 32.5081 4.38835 31.9921L7.61589 28.7636Z" fill="url(#paint4_linear_146_3293)"/>
<defs>
<linearGradient id="paint0_linear_146_3293" x1="7.48988" y1="27.2651" x2="42.0001" y2="3.22339" gradientUnits="userSpaceOnUse">
<stop stop-color="#5A5C67"/>
<stop offset="0.649676" stop-color="#E1481A"/>
<stop offset="1" stop-color="#F5450E"/>
</linearGradient>
<linearGradient id="paint1_linear_146_3293" x1="7.48988" y1="27.2651" x2="42.0001" y2="3.22339" gradientUnits="userSpaceOnUse">
<stop stop-color="#5A5C67"/>
<stop offset="0.649676" stop-color="#E1481A"/>
<stop offset="1" stop-color="#F5450E"/>
</linearGradient>
<linearGradient id="paint2_linear_146_3293" x1="7.48988" y1="27.2651" x2="42.0001" y2="3.22339" gradientUnits="userSpaceOnUse">
<stop stop-color="#5A5C67"/>
<stop offset="0.649676" stop-color="#E1481A"/>
<stop offset="1" stop-color="#F5450E"/>
</linearGradient>
<linearGradient id="paint3_linear_146_3293" x1="7.48988" y1="27.2651" x2="42.0001" y2="3.22339" gradientUnits="userSpaceOnUse">
<stop stop-color="#5A5C67"/>
<stop offset="0.649676" stop-color="#E1481A"/>
<stop offset="1" stop-color="#F5450E"/>
</linearGradient>
<linearGradient id="paint4_linear_146_3293" x1="7.48988" y1="27.2651" x2="42.0001" y2="3.22339" gradientUnits="userSpaceOnUse">
<stop stop-color="#5A5C67"/>
<stop offset="0.649676" stop-color="#E1481A"/>
<stop offset="1" stop-color="#F5450E"/>
</linearGradient>
</defs>
</svg>
