<svg width="46" height="46" viewBox="0 0 46 46" fill="none" xmlns="http://www.w3.org/2000/svg">
<path d="M22.5044 4C14.8539 4 8.65557 10.171 8.65557 17.7916V17.977H8.31559C5.9357 17.977 4 19.9473 4 22.3259V27.6562C4 30.0365 5.9357 32.0153 8.31559 32.0153H12.9714V32.017C13.6052 32.0153 14.1177 31.5032 14.1194 30.872V19.1219C14.1177 18.4907 13.6052 17.9785 12.9714 17.9785H10.9588V17.7931C10.9588 11.4008 16.0891 6.29515 22.5044 6.29515C28.9197 6.29515 34.05 11.4012 34.05 17.7931V17.9785H32.0374C31.7316 17.9768 31.4377 18.0976 31.2208 18.312C31.0038 18.5264 30.8825 18.8173 30.8808 19.1219V30.872C30.8825 31.1765 31.0038 31.4692 31.2208 31.6836C31.4377 31.898 31.7316 32.0171 32.0374 32.0171H34.05V32.3131C34.05 35.0013 31.882 36.1791 29.1825 36.1791H27.0487C26.5293 34.163 24.6807 32.6572 22.504 32.6572C19.9276 32.6572 17.8141 34.7636 17.8141 37.3295C17.8141 39.8954 19.9275 42 22.504 42C24.684 42 26.5325 40.4909 27.0487 38.4713H29.1825C33.1257 38.4713 36.3444 36.2402 36.3444 32.3133V32.0173H36.6929C39.0728 32.0173 41 30.0385 41 27.6582V22.3278C41 19.9475 39.0729 17.979 36.6929 17.979H36.3444V17.7935C36.3444 10.173 30.1548 4.00194 22.5039 4.00194L22.5044 4ZM8.31573 20.2721H11.8164V29.7216H8.31573C7.19669 29.7216 6.30144 28.8317 6.30144 27.6578V22.3274C6.30144 21.1534 7.19498 20.2721 8.31573 20.2721ZM33.184 20.2721H36.6931C37.8122 20.2721 38.6989 21.1534 38.6989 22.3274V27.6578C38.6989 28.8318 37.8122 29.7216 36.6931 29.7216H33.184V20.2721ZM22.5044 34.9509C23.8353 34.9509 24.8911 36.0007 24.8911 37.3278C24.8911 38.6548 23.8352 39.7046 22.5044 39.7046C21.1735 39.7046 20.1176 38.6548 20.1176 37.3278C20.1176 36.0007 21.1735 34.9509 22.5044 34.9509Z" fill="url(#paint0_linear_146_3294)"/>
<defs>
<linearGradient id="paint0_linear_146_3294" x1="7.39796" y1="27.2653" x2="41.5801" y2="4.07968" gradientUnits="userSpaceOnUse">
<stop stop-color="#5A5C67"/>
<stop offset="0.649676" stop-color="#E1481A"/>
<stop offset="1" stop-color="#F5450E"/>
</linearGradient>
</defs>
</svg>
