<svg width="115" height="25" viewBox="0 0 115 25" fill="none" xmlns="http://www.w3.org/2000/svg">
<path d="M9.35169 2.93432C8.17932 3.32548 7.01647 3.92099 5.92723 4.72252C1.48845 7.98889 -0.0467378 13.4405 2.4983 16.899C5.04334 20.3575 10.7048 20.5133 15.1435 17.2469C18.8506 14.5191 20.5325 10.267 19.5038 6.92469C21.9459 9.98142 22.6658 14.2508 21.0116 18.0958C18.6216 23.651 12.1806 26.217 6.62539 23.827C1.07014 21.437 -1.4958 14.9961 0.894188 9.44081C2.45029 5.82385 5.72363 3.47405 9.35169 2.93432Z" fill="url(#paint0_linear_41_27745)"/>
<path d="M10.455 0.0214045C10.4555 0.0211525 10.6234 -0.0680723 10.8799 0.119688C10.8799 0.119688 11.4149 0.480155 11.4283 0.474148L11.6301 0.45996C11.9439 0.382092 12.0322 0.625403 11.843 0.703094L12.4511 1.11282H12.532C12.822 1.02238 12.9041 1.25943 12.7793 1.33204L12.8067 1.31888L13.7701 1.91865C13.8119 1.90864 13.8533 1.89871 13.894 1.8889C14.5651 1.7273 15.075 1.60451 15.1804 1.87837C15.2914 2.16694 14.8107 2.30889 14.0282 2.53993L14.0278 2.54004L13.7552 3.45834C13.9506 3.4359 14.136 3.71056 13.7532 3.78386L13.6432 3.81589L13.4979 4.44404C13.6085 4.42807 13.7941 4.67071 13.5675 4.73705L13.3879 4.81223L13.2235 5.38156C13.2235 5.38156 13.1823 5.58019 13.0101 5.62893L12.7053 5.70707C12.7053 5.70707 12.8148 4.10826 12.7108 3.53294C12.6354 3.11579 12.4843 2.98199 12.3504 2.95629C12.2167 2.93061 12.0947 2.95544 11.7592 3.04164C11.5642 3.14807 11.3893 3.23785 11.236 3.31292C10.6544 3.76071 10.0959 4.28565 9.57938 4.88271C6.73049 8.17574 6.2363 12.4158 8.47561 14.3531C10.7066 16.2832 14.809 15.1995 17.6567 11.9351C17.1557 12.882 16.4805 13.7967 15.6396 14.6226C12.2816 17.9209 7.5536 18.5526 5.07929 16.0334C2.605 13.5143 3.32141 8.79837 6.6794 5.50009C8.04476 4.15902 9.63664 3.25874 11.2114 2.83192L11.6426 2.62574C11.7171 2.6112 12.0911 2.42079 12.1613 2.30892C12.2902 2.09537 12.1536 1.86745 11.9947 1.72837L10.2065 0.110534L10.455 0.0214045Z" fill="url(#paint1_linear_41_27745)"/>
<path d="M72.3661 4.33496C74.9421 4.33497 76.9217 4.78344 78.3048 5.68038C79.6879 6.56006 80.5092 7.90541 80.7685 9.71651L76.3857 10.9326C76.3166 10.2082 76.1178 9.66478 75.7893 9.30256C75.4781 8.94034 75.0544 8.69893 74.5185 8.57819C73.9825 8.45745 73.2737 8.39707 72.3919 8.39707C70.3 8.39707 69.254 8.86277 69.254 9.7942C69.254 10.1219 69.3491 10.3807 69.5393 10.5704C69.7468 10.7429 70.0579 10.8809 70.4728 10.9844C70.8878 11.0878 71.5448 11.2086 72.4439 11.3466L75.7115 11.8381C77.3712 12.0969 78.7198 12.692 79.7571 13.6235C80.8117 14.5377 81.339 15.676 81.339 17.0387C81.339 18.3151 80.976 19.4018 80.2499 20.2987C79.5411 21.1784 78.5642 21.8425 77.3194 22.2909C76.0918 22.7394 74.7087 22.9637 73.17 22.9637C70.6112 22.9637 68.5451 22.4893 66.9718 21.5406C65.4158 20.5919 64.4649 19.1775 64.1191 17.2974L68.8391 16.1072C68.9947 17.1594 69.4269 17.9011 70.1358 18.3324C70.8619 18.7636 71.882 18.9792 73.1959 18.9792C74.3716 18.9792 75.236 18.8757 75.7893 18.6688C76.3598 18.4445 76.6451 18.065 76.6451 17.5303C76.6278 17.2371 76.5327 17.0128 76.3598 16.8575C76.2042 16.7023 75.9275 16.5729 75.5299 16.4694C75.1495 16.366 74.5617 16.2452 73.7664 16.1072L70.032 15.4863C68.4068 15.2103 67.0842 14.5894 66.0642 13.6235C65.0441 12.6575 64.5168 11.4241 64.4823 9.92349C64.465 8.73335 64.8107 7.72432 65.5195 6.89639C66.2284 6.0512 67.1793 5.41298 68.3723 4.98175C69.5825 4.55054 70.9138 4.33496 72.3661 4.33496Z" fill="#151618"/>
<path d="M37.4406 14.3478L38.7893 16.3919H38.8929L38.8671 14.3997V4.59366H43.587V22.7049H37.4926L30.6201 12.6143L29.1678 10.4151H29.0641L29.09 12.6143V22.7049H24.3701V4.59366H30.7239L37.4406 14.3478Z" fill="#151618"/>
<path d="M60.4329 8.91446H50.8893V11.3466H59.577V15.538H50.8893V18.3841H60.4329V22.7049H46.2213V4.59366H60.4329V8.91446Z" fill="#151618"/>
<path d="M87.5319 22.7049H82.6564V4.59366H87.5319V22.7049Z" fill="#151618"/>
<path d="M101.402 14.6325L102.492 18.4358L103.581 14.6325L106.719 4.59366H114.784V22.7049H110.22V12.3039L110.272 8.94031H110.168L109.079 12.3039L105.448 22.7049H99.5352L95.8785 12.3039L94.8153 8.94031H94.7115L94.7375 12.3039V22.7049H90.1731V4.59366H98.2385L101.402 14.6325Z" fill="#151618"/>
<defs>
<linearGradient id="paint0_linear_41_27745" x1="10.9529" y1="0" x2="10.9529" y2="24.7212" gradientUnits="userSpaceOnUse">
<stop stop-color="#FF774C"/>
<stop offset="1" stop-color="#FE4F18"/>
</linearGradient>
<linearGradient id="paint1_linear_41_27745" x1="10.9529" y1="0" x2="10.9529" y2="24.7212" gradientUnits="userSpaceOnUse">
<stop stop-color="#FF774C"/>
<stop offset="1" stop-color="#FE4F18"/>
</linearGradient>
</defs>
</svg>
